<svg width="16" height="17" viewBox="0 0 16 17" fill="none" xmlns="http://www.w3.org/2000/svg">
<path d="M14.87 12.8259C14.9541 12.5461 15 12.2486 15 11.9412V5.05882C15 4.24757 14.6777 3.46955 14.1041 2.89591C13.5305 2.32227 12.7524 2 11.9412 2H5.05882C4.24757 2 3.46955 2.32227 2.89591 2.89591C2.32227 3.46955 2 4.24757 2 5.05882V11.9947C2.01404 12.7966 2.34249 13.561 2.91462 14.1231C3.48674 14.6852 4.25676 15.0001 5.05882 15H11.9412L12.0306 14.9985M14.87 12.8259L14.8027 12.7464L12.9169 10.4706C12.7739 10.298 12.5946 10.159 12.3918 10.0633C12.189 9.96769 11.9676 9.91781 11.7434 9.91723C11.5192 9.91664 11.2976 9.96537 11.0943 10.0599C10.891 10.1545 10.711 10.2926 10.567 10.4645L9.56371 11.6621L9.40006 11.8616M14.87 12.8259C14.6845 13.4402 14.3105 13.9799 13.8009 14.3699C13.2914 14.7599 12.6721 14.9798 12.0306 14.9985M9.40006 11.8616L11.9595 14.9174L12.0306 14.9985M9.40006 11.8616L6.93235 8.91524C6.7888 8.74391 6.60945 8.60614 6.40691 8.5116C6.20437 8.41707 5.98357 8.36808 5.76006 8.36808C5.53655 8.36808 5.31575 8.41707 5.11321 8.5116C4.91067 8.60614 4.73131 8.74391 4.58776 8.91524L2.13612 11.8418L2.00076 11.9955" stroke="currentColor" stroke-width="0.96" stroke-linecap="round" stroke-linejoin="round"/>
<path d="M10.8639 7.28338C11.4974 7.28338 12.0109 6.76982 12.0109 6.13632C12.0109 5.50281 11.4974 4.98926 10.8639 4.98926C10.2304 4.98926 9.7168 5.50281 9.7168 6.13632C9.7168 6.76982 10.2304 7.28338 10.8639 7.28338Z" fill="currentColor"/>
</svg>
