<svg width="36" height="36" viewBox="0 0 36 36" fill="none" xmlns="http://www.w3.org/2000/svg">
<path d="M9 19.5C4.86 19.5 1.5 22.845 1.5 27C1.5 31.155 4.86 34.5 9 34.5C13.14 34.5 16.5 31.14 16.5 27C16.5 22.86 13.155 19.5 9 19.5ZM5.94 23.94H9C9.57 23.94 10.02 24.405 10.02 24.96C10.02 25.515 9.57 25.98 9 25.98H5.94C5.37 25.98 4.92 25.515 4.92 24.96C4.92 24.405 5.37 23.94 5.94 23.94ZM12.06 30.06H5.94C5.37 30.06 4.92 29.595 4.92 29.04C4.92 28.485 5.385 28.02 5.94 28.02H12.075C12.645 28.02 13.095 28.485 13.095 29.04C13.095 29.595 12.63 30.06 12.06 30.06Z" fill="#FCFCFC"/>
<path d="M25.5 4.5H10.5C6 4.5 3 6.75 3 12V16.71C3 17.805 4.125 18.495 5.13 18.06C6.78 17.34 8.655 17.07 10.62 17.385C14.55 18.03 17.76 21.135 18.555 25.035C18.78 26.175 18.81 27.285 18.66 28.35C18.54 29.235 19.26 30.015 20.145 30.015H25.5C30 30.015 33 27.765 33 22.515V12C33 6.75 30 4.5 25.5 4.5ZM26.205 12.885L21.51 16.635C20.52 17.43 19.26 17.82 18 17.82C16.74 17.82 15.465 17.43 14.49 16.635L9.795 12.885C9.315 12.495 9.24 11.775 9.615 11.295C10.005 10.815 10.71 10.725 11.19 11.115L15.885 14.865C17.025 15.78 18.96 15.78 20.1 14.865L24.795 11.115C25.275 10.725 25.995 10.8 26.37 11.295C26.76 11.775 26.685 12.495 26.205 12.885Z" fill="#FCFCFC"/>
</svg>
