<svg width="74" height="17" viewBox="0 0 74 17" fill="none" xmlns="http://www.w3.org/2000/svg">
<g clip-path="url(#clip0_2889_8121)">
<path d="M10.2891 0.152344C10.6063 0.550612 11.0764 1.25963 11.1312 2.18174C11.2853 4.79205 7.86083 5.69132 7.8621 8.03781C7.86337 10.3843 11.3121 11.3013 11.1503 13.9053C11.0942 14.8173 10.6203 15.5212 10.298 15.9195H10.2903C10.0303 15.9202 9.77727 15.8355 9.57053 15.6785C7.20981 13.8964 5.53451 10.7813 5.59948 7.97693C5.71159 3.17995 9.87628 0.416165 10.2891 0.152344Z" fill="#1919DB"/>
<path d="M5.84833 0.152344C6.16683 0.550612 6.63693 1.25963 6.69171 2.18174C6.84587 4.79205 3.42137 5.69132 3.42264 8.03781C3.42392 10.3843 6.87262 11.3013 6.71083 13.9053C6.65477 14.8173 6.18084 15.5212 5.85852 15.9195H5.85088C5.59084 15.9202 5.33781 15.8355 5.13107 15.6785C2.77036 13.8964 1.09506 10.7813 1.16003 7.97693C1.27214 3.17995 5.43683 0.416165 5.84833 0.152344Z" fill="#1919DB"/>
<path d="M13.3371 2.03857C13.7026 2.4749 13.9249 3.01233 13.9741 3.57837C14.0925 5.56464 11.4872 6.2483 11.4872 8.03289C11.4872 9.81749 14.1117 10.5151 13.9894 12.4963C13.9363 13.0612 13.7099 13.5961 13.3409 14.0285H13.3345C13.1367 14.0283 12.9443 13.9637 12.7867 13.8446C10.9916 12.4887 9.71765 10.1206 9.77116 7.98723C9.85651 4.34194 13.03 2.24025 13.3371 2.03857Z" fill="#1919DB"/>
<path d="M27.5545 6.73042H25.77C25.7191 6.43778 25.6253 6.17854 25.4885 5.9527C25.3517 5.72368 25.1815 5.52964 24.978 5.3706C24.7744 5.21156 24.5422 5.09227 24.2813 5.01275C24.0237 4.93005 23.7454 4.8887 23.4464 4.8887C22.9152 4.8887 22.4444 5.0223 22.0341 5.28949C21.6237 5.5535 21.3025 5.94157 21.0703 6.45369C20.8381 6.96262 20.722 7.58448 20.722 8.31926C20.722 9.06677 20.8381 9.69658 21.0703 10.2087C21.3056 10.7176 21.6269 11.1025 22.0341 11.3634C22.4444 11.621 22.9136 11.7498 23.4416 11.7498C23.7342 11.7498 24.0078 11.7117 24.2623 11.6353C24.5199 11.5558 24.7505 11.4397 24.9541 11.287C25.1609 11.1343 25.3342 10.9467 25.4742 10.724C25.6173 10.5013 25.7159 10.2469 25.77 9.96059L27.5545 9.97014C27.4877 10.4345 27.3429 10.8703 27.1203 11.2775C26.9008 11.6846 26.6129 12.0441 26.2567 12.3558C25.9004 12.6643 25.4837 12.9061 25.0066 13.081C24.5295 13.2528 23.9998 13.3387 23.4177 13.3387C22.5589 13.3387 21.7923 13.1399 21.118 12.7423C20.4436 12.3447 19.9124 11.7705 19.5244 11.0198C19.1363 10.2691 18.9423 9.36895 18.9423 8.31926C18.9423 7.2664 19.1379 6.36621 19.5291 5.61871C19.9204 4.86802 20.4532 4.29388 21.1275 3.89627C21.8019 3.49866 22.5653 3.29985 23.4177 3.29985C23.9617 3.29985 24.4674 3.3762 24.935 3.52888C25.4026 3.68156 25.8193 3.90581 26.1851 4.20163C26.5509 4.49427 26.8515 4.85371 27.0869 5.27995C27.3254 5.703 27.4813 6.18649 27.5545 6.73042ZM33.2328 10.1228V5.87636H34.96V13.2051H33.2853V11.9025H33.209C33.0436 12.3128 32.7716 12.6484 32.3931 12.9093C32.0177 13.1701 31.5549 13.3005 31.0046 13.3005C30.5243 13.3005 30.0997 13.1939 29.7307 12.9808C29.3649 12.7645 29.0786 12.4512 28.8719 12.0409C28.6651 11.6274 28.5617 11.128 28.5617 10.5427V5.87636H30.2889V10.2755C30.2889 10.7399 30.4162 11.1089 30.6706 11.3824C30.9251 11.656 31.2591 11.7928 31.6726 11.7928C31.9271 11.7928 32.1736 11.7307 32.4122 11.6067C32.6507 11.4826 32.8464 11.2981 32.999 11.0532C33.1549 10.8051 33.2328 10.495 33.2328 10.1228ZM36.1987 13.2051V5.87636H37.8734V7.09781H37.9498C38.0834 6.67476 38.3124 6.34872 38.6369 6.11969C38.9645 5.88749 39.3382 5.77139 39.7581 5.77139C39.8535 5.77139 39.9601 5.77616 40.0778 5.7857C40.1987 5.79206 40.2989 5.8032 40.3784 5.8191V7.40795C40.3052 7.3825 40.1891 7.36023 40.0301 7.34115C39.8742 7.31888 39.7231 7.30775 39.5768 7.30775C39.2619 7.30775 38.9788 7.37614 38.7275 7.51291C38.4794 7.64651 38.2838 7.83259 38.1406 8.07116C37.9975 8.30972 37.9259 8.58487 37.9259 8.89659V13.2051H36.1987ZM42.9661 13.353C42.5017 13.353 42.0835 13.2703 41.7113 13.1049C41.3423 12.9363 41.0497 12.6882 40.8334 12.3606C40.6203 12.0329 40.5137 11.629 40.5137 11.1486C40.5137 10.7351 40.59 10.3932 40.7427 10.1228C40.8954 9.85244 41.1037 9.63614 41.3678 9.47392C41.6318 9.3117 41.9292 9.18923 42.26 9.10653C42.594 9.02065 42.9391 8.95862 43.2954 8.92045C43.7248 8.87592 44.0731 8.83616 44.3403 8.80117C44.6075 8.763 44.8015 8.70574 44.9224 8.6294C45.0464 8.54988 45.1085 8.42741 45.1085 8.26201V8.23338C45.1085 7.87394 45.0019 7.59562 44.7888 7.3984C44.5757 7.20119 44.2687 7.10258 43.8679 7.10258C43.4449 7.10258 43.1093 7.19483 42.8612 7.37932C42.6163 7.56381 42.4508 7.7817 42.365 8.03299L40.7523 7.80396C40.8795 7.35864 41.0894 6.98648 41.3821 6.68748C41.6747 6.3853 42.0326 6.15946 42.4556 6.00995C42.8787 5.85727 43.3463 5.78093 43.8584 5.78093C44.2115 5.78093 44.5629 5.82228 44.9128 5.90499C45.2627 5.98769 45.5824 6.12447 45.8719 6.31532C46.1613 6.50299 46.3935 6.75905 46.5685 7.0835C46.7466 7.40795 46.8357 7.81351 46.8357 8.30018V13.2051H45.1753V12.1983H45.118C45.013 12.4019 44.8651 12.5928 44.6743 12.7709C44.4866 12.9458 44.2496 13.0874 43.9633 13.1955C43.6803 13.3005 43.3479 13.353 42.9661 13.353ZM43.4146 12.0838C43.7614 12.0838 44.062 12.0154 44.3164 11.8787C44.5709 11.7387 44.7665 11.5542 44.9033 11.3252C45.0433 11.0962 45.1132 10.8465 45.1132 10.5761V9.71248C45.0592 9.75702 44.9669 9.79837 44.8365 9.83654C44.7093 9.87471 44.5661 9.90811 44.4071 9.93674C44.248 9.96536 44.0906 9.99081 43.9347 10.0131C43.7789 10.0353 43.6437 10.0544 43.5292 10.0703C43.2715 10.1053 43.0409 10.1626 42.8373 10.2421C42.6337 10.3216 42.4731 10.433 42.3554 10.5761C42.2377 10.716 42.1789 10.8974 42.1789 11.12C42.1789 11.4381 42.295 11.6783 42.5272 11.8405C42.7594 12.0027 43.0552 12.0838 43.4146 12.0838ZM51.2318 13.3482C50.5002 13.3482 49.8719 13.1876 49.3471 12.8663C48.8254 12.545 48.4231 12.1013 48.14 11.5351C47.86 10.9657 47.7201 10.3105 47.7201 9.56935C47.7201 8.82502 47.8632 8.16817 48.1495 7.5988C48.4358 7.02624 48.8397 6.58092 49.3614 6.26283C49.8863 5.94157 50.5065 5.78093 51.2222 5.78093C51.817 5.78093 52.3435 5.89067 52.8015 6.11015C53.2627 6.32645 53.6301 6.6334 53.9037 7.03101C54.1772 7.42544 54.3331 7.88667 54.3713 8.41469H52.7204C52.6536 8.06161 52.4946 7.76738 52.2433 7.532C51.9952 7.29343 51.6628 7.17415 51.2461 7.17415C50.893 7.17415 50.5829 7.26958 50.3157 7.46043C50.0485 7.6481 49.8401 7.91848 49.6906 8.27155C49.5443 8.62463 49.4711 9.04768 49.4711 9.54072C49.4711 10.0401 49.5443 10.4695 49.6906 10.829C49.8369 11.1852 50.0421 11.4604 50.3061 11.6544C50.5733 11.8453 50.8866 11.9407 51.2461 11.9407C51.5005 11.9407 51.728 11.893 51.9284 11.7975C52.1319 11.6989 52.3021 11.5574 52.4389 11.3729C52.5757 11.1884 52.6695 10.9642 52.7204 10.7001H54.3713C54.3299 11.2186 54.1772 11.6783 53.9132 12.0791C53.6492 12.4767 53.2898 12.7884 52.8349 13.0142C52.3801 13.2369 51.8457 13.3482 51.2318 13.3482ZM58.4489 13.3482C57.7332 13.3482 57.1129 13.1908 56.5881 12.8759C56.0632 12.561 55.6561 12.1204 55.3666 11.5542C55.0803 10.988 54.9372 10.3264 54.9372 9.56935C54.9372 8.8123 55.0803 8.14909 55.3666 7.57971C55.6561 7.01034 56.0632 6.5682 56.5881 6.25329C57.1129 5.93839 57.7332 5.78093 58.4489 5.78093C59.1646 5.78093 59.7848 5.93839 60.3097 6.25329C60.8345 6.5682 61.2401 7.01034 61.5264 7.57971C61.8158 8.14909 61.9606 8.8123 61.9606 9.56935C61.9606 10.3264 61.8158 10.988 61.5264 11.5542C61.2401 12.1204 60.8345 12.561 60.3097 12.8759C59.7848 13.1908 59.1646 13.3482 58.4489 13.3482ZM58.4584 11.9645C58.8465 11.9645 59.1709 11.858 59.4318 11.6449C59.6926 11.4286 59.8866 11.1391 60.0139 10.7765C60.1443 10.4139 60.2095 10.0099 60.2095 9.56457C60.2095 9.11607 60.1443 8.71051 60.0139 8.34789C59.8866 7.98209 59.6926 7.69104 59.4318 7.47474C59.1709 7.25845 58.8465 7.1503 58.4584 7.1503C58.0608 7.1503 57.73 7.25845 57.466 7.47474C57.2052 7.69104 57.0095 7.98209 56.8791 8.34789C56.7519 8.71051 56.6883 9.11607 56.6883 9.56457C56.6883 10.0099 56.7519 10.4139 56.8791 10.7765C57.0095 11.1391 57.2052 11.4286 57.466 11.6449C57.73 11.858 58.0608 11.9645 58.4584 11.9645ZM62.8891 13.2051V5.87636H64.54V7.12167H64.6259C64.7785 6.70179 65.0314 6.37416 65.3845 6.13878C65.7376 5.90021 66.159 5.78093 66.6489 5.78093C67.1451 5.78093 67.5634 5.90181 67.9037 6.14355C68.2473 6.38212 68.489 6.70815 68.629 7.12167H68.7053C68.8675 6.71452 69.1411 6.39007 69.526 6.14832C69.914 5.9034 70.3737 5.78093 70.9049 5.78093C71.5792 5.78093 72.1295 5.99405 72.5558 6.42029C72.982 6.84652 73.1951 7.46838 73.1951 8.28587V13.2051H71.4631V8.55306C71.4631 8.09819 71.3423 7.76579 71.1005 7.55586C70.8588 7.34274 70.5629 7.23618 70.213 7.23618C69.7964 7.23618 69.4703 7.36659 69.2349 7.62743C69.0027 7.88508 68.8866 8.22066 68.8866 8.63417V13.2051H67.1928V8.48149C67.1928 8.10297 67.0783 7.80078 66.8493 7.57494C66.6234 7.3491 66.3276 7.23618 65.9618 7.23618C65.7137 7.23618 65.4879 7.2998 65.2843 7.42703C65.0807 7.55109 64.9185 7.72762 64.7976 7.95665C64.6767 8.18249 64.6163 8.4465 64.6163 8.74868V13.2051H62.8891Z" fill="#FCFCFC"/>
</g>
<defs>
<clipPath id="clip0_2889_8121">
<rect width="73.2976" height="17" fill="white" transform="translate(0.351562)"/>
</clipPath>
</defs>
</svg>
